<?xml version="1.0" encoding="UTF-8"?>
<svg id="Calque_2" data-name="Calque 2" xmlns="http://www.w3.org/2000/svg" viewBox="0 0 467.3 77.73">
  <defs>
    <style>
      .cls-1 {
        fill: #1d1d1b;
        stroke-width: 0px;
      }
    </style>
  </defs>
  <g id="texte">
    <g>
      <path id="O_1" data-name="O 1" class="cls-1" d="m0,38.63C0,17.57,17.6.22,39.3.22s39,17.34,39,38.41-17.7,38.31-39,38.31S0,59.69,0,38.63Zm77.5,0C77.5,17.96,60.1,1.01,39.3,1.01c-9.8,0-16.4,3.62-16.4,3.72v67.7c0,.1,6.6,3.72,16.4,3.72,20.8,0,38.2-16.85,38.2-37.52Z"/>
      <path id="K" class="cls-1" d="m90.4,75.13c-.68-1.23.08-2.72.1-3.24.05-1.68.1-4.18.1-8.26V13.62c0-9.2-.2-10.5-.2-11.5,0-.7.6-1,1-1h19c.5,0,.9.3.9,1,0,.9-.1,2.3-.1,11.6v16.9c20.59-13.76,26.68-20.84,27.79-24.76.21-.76.64-2.83,2.38-3.99,1.36-.91,2.78-.76,10.38-.75.56,0,1.02,0,1.31,0,.08.13.16.27.24.4.2.4,0,.7-.4,1-.7.5-2.1,1-10.9,7.2l-18.3,13,18.4,39c5.2,11,6.1,12.2,6.6,13.2.2.5.1,1-.3,1.1-.19.03-.37.07-.56.1-.71,0-1.57,0-2.56,0-1.28-.01-1.88-.03-2.66-.22,0,0-.57-.13-1.08-.33-3.09-1.2-2.56-10.51-2.56-10.51.29-5.05-2.46-15.98-15.99-41.95l-11.8,8.4v32.1c0,8.1.1,10,.1,11.5,0,.6-.4,1-.9,1h-19c-.31-.18-.72-.5-1-1Z"/>
      <path id="L_1" data-name="L 1" class="cls-1" d="m163.3,75.13V13.72c0-9.1-.2-10.5-.2-11.6,0-.8.6-1,1-1h18.9c.6,0,1,.2,1,1,0,1-.1,2.5-.1,11.8v61.3c.45.02,1.19.06,2.1.1,3.93.15,13.05.47,19.6-1.42,1.97-.57,3.8-1.32,3.8-1.32,1.18-.48,2.27-.93,3.58-1.71,2.3-1.36,2.75-2.22,3.36-2.04.69.2,1.27,1.65.96,6.79v.2c0,.13-.08.34-.27.47-.16.12-.34.12-.43.13-.91.02-1.37.02-1.84-.12-.61-.19-2.64-.34-8.86-.18h-41.7c-.6,0-.9-.4-.9-1Z"/>
      <path id="I" class="cls-1" d="m224.8,75.13c0-1.5.1-3.4.1-11.5V13.62c0-9.2-.1-10.5-.1-11.5,0-.7.5-1,1-1h18.9c.6,0,1,.3,1,1,0,.9-.1,2.3-.1,11.6v49.9c0,8.1.1,10,.1,11.5,0,.6-.5,1-1,1h-18.9c-.6,0-1-.4-1-1Z"/>
      <path id="O_2" data-name="O 2" class="cls-1" d="m314.8,38.52c0-21.13,17.6-38.52,39.3-38.52s39,17.39,39,38.52-17.7,38.42-39,38.42-39.3-17.3-39.3-38.42Zm77.5,0c0-20.73-17.4-37.74-38.2-37.74-9.8,0-16.4,3.64-16.4,3.73v67.9c0,.1,6.6,3.73,16.4,3.73,20.8,0,38.2-16.9,38.2-37.64Z"/>
      <path id="U" class="cls-1" d="m404.8,47.63V2.12c0-.6.3-1,.8-1h19c.6,0,.9.4.9,1v73.1c0,.1,4.5,1.7,11.9,1.7,19.8,0,28.8-12.4,28.8-27.7v-27c-.3-5.92-1.32-9.26-2.24-11.24-.37-.8-.69-1.63-1.04-2.44-.17-.4-.31-.7-.38-.85-2.1-4.62-2.56-5.8-2.09-6.32.1-.1.28-.24.66-.26h5.59c.2,0,.6.2.6.7,0,.9-.3,2.8-.3,10.6v36.8c0,15.6-9.2,28.5-29.6,28.5-22.7,0-32.6-14.2-32.6-30.1Z"/>
      <path id="L_2" data-name="L 2" class="cls-1" d="m262.65,74.92V13.52c0-9.1-.2-10.5-.2-11.6,0-.8.6-1,1-1h18.9c.6,0,1,.2,1,1,0,1-.1,2.5-.1,11.8v61.3c.45.02,1.19.06,2.1.1,3.93.15,13.05.47,19.6-1.42,1.97-.57,3.8-1.32,3.8-1.32,1.18-.48,2.27-.93,3.58-1.71,2.3-1.36,2.75-2.22,3.36-2.04.69.2,1.27,1.65.96,6.79v.2c0,.13-.08.34-.27.47-.16.12-.34.12-.43.13-.91.02-1.37.02-1.84-.12-.61-.19-2.64-.34-8.86-.18h-41.7c-.6,0-.9-.4-.9-1Z"/>
    </g>
  </g>
</svg>