<?xml version="1.0" encoding="UTF-8"?>
<svg id="Calque_1" data-name="Calque 1" xmlns="http://www.w3.org/2000/svg" viewBox="0 0 1715.16 896.94">
  <defs>
    <style>
      .cls-1, .cls-2 {
        stroke: #000;
        stroke-miterlimit: 10;
      }

      .cls-2 {
        fill: none;
        stroke-width: 4px;
      }

      .cls-3, .cls-4 {
        stroke-width: 0px;
      }

      .cls-4 {
        fill: #fff;
      }
    </style>
  </defs>
  <g>
    <path class="cls-3" d="m187.19,428.9v408.89c0,27.38,22.19,49.57,49.57,49.57h0c.91,0,1.64.73,1.64,1.64v2.2c0,.91-.73,1.64-1.64,1.64H24.32c-.91,0-1.64-.73-1.64-1.64v-2.2c0-.91.73-1.64,1.64-1.64h0c27.38,0,49.57-22.19,49.57-49.57v-408.89h0v-3.72c0-.9.73-1.64,1.64-1.64l111.66-.12h0v5.48h0Z"/>
    <path class="cls-3" d="m723.24,428.9h-47.93c-.91,0-1.64.73-1.64,1.64v460.66c0,.91-.73,1.64-1.64,1.64h-78.14c-.54,0-1.05-.27-1.36-.72l-250-370.51c-.9-1.34-3-.7-3,.92v363.2c0,.91.73,1.64,1.64,1.64h47.93c.91,0,1.64.73,1.64,1.64v2.2c0,.91-.73,1.64-1.64,1.64h-104.26c-.91,0-1.64-.73-1.64-1.64v-2.2c0-.91.73-1.64,1.64-1.64h47.93c.91,0,1.64-.73,1.64-1.64v-455.18c0-.91-.73-1.64-1.64-1.64h-47.93c-.91,0-1.64-.73-1.64-1.64v-2.2c0-.91.73-1.64,1.64-1.64h129.35c.54,0,1.05.27,1.36.72l250,370.5c.9,1.34,3,.7,3-.92v-363.19c0-.91-.73-1.64-1.64-1.64h-47.93c-.91,0-1.64-.73-1.64-1.64v-2.2c0-.91.73-1.64,1.64-1.64h104.26c.91,0,1.64.73,1.64,1.64v2.2c0,.91-.73,1.64-1.64,1.64Z"/>
    <path class="cls-3" d="m1249.14,889v2.2c0,.91-.73,1.64-1.64,1.64h-231c-.91,0-1.64-.73-1.64-1.64v-2.2c0-.91.73-1.64,1.64-1.64h58.23c1.1,0,1.89-1.07,1.57-2.12l-39.31-126.73c-.21-.69-.85-1.15-1.57-1.15h-198.58c-.72,0-1.35.47-1.57,1.15l-39.31,126.73c-.33,1.05.46,2.12,1.57,2.12h58.87c.91,0,1.64.73,1.64,1.64v2.2c0,.91-.73,1.64-1.64,1.64h-117.06c-.91,0-1.64-.73-1.64-1.64v-2.2c0-.91.73-1.64,1.64-1.64h49.64c.72,0,1.35-.47,1.57-1.16l142.67-461.63c.21-.69.85-1.16,1.57-1.16h116.64c.72,0,1.35.47,1.57,1.16l142.67,461.63c.21.69.85,1.16,1.57,1.16h50.28c.91,0,1.64.73,1.64,1.64Zm-214.45-139.25l-96.99-312.37c-.48-1.54-2.66-1.54-3.13,0l-96.36,312.37c-.33,1.05.46,2.12,1.57,2.12h193.35c1.1,0,1.89-1.07,1.57-2.13Z"/>
    <path class="cls-3" d="m1715.16,658.13c0,144.38-97.94,237.45-220.2,238.81h-4.48c-122.9-.68-222.12-93.75-222.12-238.81s99.86-238.81,223.4-238.81,223.4,93.06,223.4,238.81Zm-113.3,104.69v-209.39c0-73.22-40.33-128.64-110.1-128.64s-110.1,55.43-110.1,128.64v209.39c0,73.22,40.33,128.65,110.1,128.65s110.1-55.43,110.1-128.65Z"/>
  </g>
  <path class="cls-2" d="m37.5,4.57c-3.2,4.21-2.31,5.14-10.34,50.93-11.34,64.6-13.23,67.65-17.39,99.3-3.6,27.35-4.97,46.31-6.14,62.67-1.91,26.96-2.24,44.84-.44,64.86,1.07,11.91,1.85,23.19,5.67,35.69,1.99,6.51,5.12,16.6,11.58,27.83,6.98,12.13,13.91,20.28,17.36,23.76,9.75,9.83,13.32,13.37,22.38,19.17,10.08,6.46,10.48,7.31,25.09,13.23,10.68,4.33,19.64,5.58,26.68,6.78,4.83.82,19.77,1.99,28.99,1.13,4.44-.42,12.64-1.41,21.17-3.58,6.96-1.78,11.59-3.6,15.32-5.06,0,0,16.13-5.92,32.96-19.35,13.26-10.58,17.62-18.91,21.1-23.34,3.57-4.55,11.89-15.84,17.97-32.43,4.41-12.04,5.65-21.43,7.45-35.06,1.81-13.7,2.04-24.23,2.19-31.99.24-12.29-.28-21.21-1.31-38.56-1.06-17.76-1.62-27.17-3.07-39.88-.94-8.29-1.5-11.3-7.89-49.08-6.19-36.59-6.16-36.67-7.89-46.45-3.54-20-6.31-34.54-8.33-45.14-4.28-22.47-6.36-33.74-7.01-35.06-1.13-2.29-182.53-5.07-186.11-.36Z"/>
  <path class="cls-1" d="m4.92,201.3c2.33-7.54,21.97-11.57,29.61-13.24,8.46-1.85,29.18-3.87,44.71-2.48,16.6,1.49,27.92,2.1,52.02,14.37,12.61,6.42,30.88,9.03,44.59,8.79,21.96-.38,22.79.25,33.51-1.23,13.65-1.88,27.62-6.08,34.26-7.96,4.31-1.22,10.63-5.08,12.09-4.77,0,0,2.06,16.45,2.01,24.4-.17,29.08,1.99,27.5,1.23,46.58-1.02,25.75-4.95,45.99-7.67,55.01-7.74,25.66-23.39,43.94-30.2,51.08-14.01,14.68-41.88,28.85-48.53,31.25-10.46,3.77-33.33,8.13-55.43,6.29-16.72-1.39-40.97-9.55-52.62-17.85-7.54-5.38-20.56-14.75-32.62-29.87-13.42-16.83-18.54-32.7-22.12-43.87-4.19-13.09-6.29-28.47-7.67-54.75-1.05-19.93,2.83-61.76,2.83-61.76Z"/>
  <path class="cls-4" d="m248.78,294.82c-1.27,9.53-4.25,24.09-10.81,39.34-2.6,6.05-11.03,24.79-30.89,41.71"/>
</svg>